<?xml version="1.0" encoding="UTF-8"?>
<svg version="1.1" xmlns="http://www.w3.org/2000/svg" width="512" height="512">
<path d="M0 0 C3.30512854 1.84825771 5.56073104 3.79344605 8.23307419 6.4663229 C8.70639813 6.93567243 9.17972207 7.40502196 9.66738915 7.88859421 C11.24052013 9.45215436 12.80277009 11.0261386 14.3652153 12.60037136 C15.49521769 13.72794412 16.62586522 14.85487067 17.75710678 15.98120022 C20.81951806 19.03422403 23.87246271 22.09655381 26.92350674 25.1609323 C30.11952085 28.36827881 33.32326066 31.56789194 36.52592087 34.76859951 C41.90091499 40.14271142 47.26990336 45.52276592 52.63523483 50.9065237 C58.83873403 57.13120551 65.05103283 63.34699532 71.26824832 69.55797523 C77.25091612 75.53494979 83.22789916 81.51757658 89.20210648 87.50300694 C91.74417429 90.0497196 94.28811683 92.59453764 96.83356094 95.13787556 C99.82919119 98.13162303 102.81978146 101.13031635 105.80653954 104.13291454 C106.90372951 105.23434871 108.0026222 106.33408972 109.1033268 107.4320116 C110.60462192 108.93008628 112.0996275 110.43416897 113.59318161 111.93995571 C114.43159466 112.78042163 115.27000771 113.62088755 116.13382721 114.48682213 C119.66730266 118.4642656 120.46685454 121.35137371 120.53416061 126.64163113 C120.56251999 127.649678 120.59087936 128.65772488 120.62009811 129.69631863 C119.73139281 135.61599975 115.48312087 139.69291597 111.37717819 143.80258083 C110.91105779 144.27182122 110.44493738 144.74106161 109.96469212 145.2245214 C108.41572438 146.78140877 106.85977641 148.33111723 105.30369186 149.88088894 C104.18603914 151.00125413 103.06881181 152.12204383 101.95197678 153.24322414 C98.92777805 156.27651655 95.8973162 159.30347748 92.86539459 162.32904816 C89.69054168 165.49882796 86.52058219 168.67349543 83.34983444 171.84738064 C78.02717342 177.17367641 72.70031769 182.49574969 67.37107468 187.81545925 C61.20975188 193.96588728 55.05568216 200.12350221 48.90530872 206.28487802 C43.62141596 211.57784429 38.33363873 216.86690618 33.04259014 222.15271926 C29.88370179 225.30848971 26.72618005 228.46559563 23.572155 231.62622738 C20.60866681 234.59548969 17.64033489 237.55982276 14.66818237 240.52041149 C13.57802737 241.60792076 12.48957303 242.69713786 11.40294647 243.78817272 C9.92025331 245.2763258 8.43154541 246.75818964 6.94114304 248.23861599 C6.10935028 249.06965469 5.27755753 249.9006934 4.42055893 250.75691509 C-0.2380298 254.89702628 -3.99597207 255.21319812 -10.08302689 255.07522488 C-14.40249274 254.59188521 -16.41611677 253.49243076 -19.84083939 250.76663113 C-23.60092069 245.94601407 -24.28423562 242.34210976 -24.27443314 236.29397488 C-23.34842144 230.89641121 -20.48786428 227.03857311 -16.68368912 223.24871731 C-15.83814972 222.39905392 -14.99261032 221.54939053 -14.12144852 220.67397976 C-13.19716049 219.76047756 -12.27287247 218.84697536 -11.32057571 217.90579128 C-10.33427937 216.92034195 -9.34864472 215.93422998 -8.36362076 214.94750881 C-5.69700438 212.28003393 -3.02125938 209.62189127 -0.34374833 206.96535826 C2.45632541 204.18407548 5.24787025 201.39425882 8.04034042 198.60534573 C13.32539039 193.3296091 18.61803905 188.06156466 23.91347724 182.79625738 C29.94354473 176.79975597 35.9650662 170.794704 41.98589361 164.78892732 C54.36751428 152.43863957 66.75979639 140.09910418 79.15916061 127.76663113 C77.68863844 124.36474969 75.79611897 122.16252296 73.17368698 119.56083584 C72.34082672 118.72956173 71.50796646 117.89828762 70.64986801 117.04182339 C69.73447754 116.1383366 68.81908707 115.23484982 67.87595749 114.30398464 C66.90309932 113.33660366 65.93070376 112.36875725 64.95873642 111.40048122 C62.86675715 109.3182056 60.7717612 107.23903029 58.67443466 105.16214085 C55.35773736 101.87727704 52.04922922 98.58424823 48.74204636 95.28980923 C40.52667349 87.10851041 32.30203578 78.9365424 24.07255173 70.76943874 C17.67614747 64.42149076 11.28295825 58.0703872 4.90025949 51.70865482 C1.61381742 48.4337324 -1.67944561 45.165877 -4.97799301 41.90314972 C-7.02924371 39.87110218 -9.07420331 37.83281352 -11.11746788 35.79273891 C-12.51709459 34.39904205 -13.92421642 33.01288487 -15.33154678 31.62696743 C-16.16440704 30.7928735 -16.9972673 29.95877956 -17.85536575 29.09941006 C-18.58098457 28.37915425 -19.30660339 27.65889845 -20.05421066 26.91681671 C-23.80625901 22.40127291 -24.29322858 17.95078063 -24.14943314 12.26663113 C-23.6380978 8.12416768 -22.43005219 6.08613472 -19.84083939 2.76663113 C-13.85143092 -1.90510748 -7.11332163 -3.08829479 0 0 Z " fill="#000000" transform="translate(215.84083938598633,129.2333688735962)"/>
</svg>
